<svg viewBox="0 0 720 716" fill="none" xmlns="http://www.w3.org/2000/svg">
<path d="M729.945 534.625C729.945 527.935 729.945 527.935 723.41 527.935C696.846 527.935 670.289 527.935 643.725 527.927C639.872 527.927 639.833 527.896 639.833 524.306C639.825 499.269 639.817 474.225 639.833 449.189C639.833 445.899 639.888 445.852 643.227 445.844C652.838 445.82 662.45 445.805 672.061 445.86C673.913 445.868 675.4 445.52 676.8 444.112C693.927 426.897 711.109 409.737 728.299 392.593C729.454 391.438 729.968 390.228 729.961 388.584C729.905 376.065 729.945 363.547 729.921 351.021C729.913 348.072 729.842 348.064 726.986 347.977C726.1 347.953 725.214 347.969 724.328 347.969C697.89 347.969 671.46 347.969 645.022 347.969C644.01 347.969 642.997 347.914 641.985 347.969C640.315 348.064 639.714 347.226 639.809 345.668C639.849 345.035 639.809 344.402 639.809 343.77C639.809 318.987 639.809 294.196 639.809 269.413C639.809 268.527 639.825 267.641 639.841 266.755C639.865 265.696 640.395 265.111 641.47 265.079C642.483 265.047 643.496 265.024 644.5 265.024C653.479 265.016 662.466 264.953 671.444 265.063C673.905 265.095 675.693 264.367 677.449 262.596C694.117 245.816 710.84 229.091 727.619 212.429C729.28 210.776 729.992 209.131 729.969 206.783C729.858 195.277 729.937 183.763 729.913 172.257C729.897 166.801 730.546 167.141 724.819 167.141C697.748 167.133 670.685 167.141 643.614 167.133C639.841 167.133 639.809 167.093 639.809 163.376C639.801 138.467 639.801 113.549 639.809 88.6395C639.809 84.8833 639.841 84.8517 643.543 84.8438C653.028 84.8279 662.513 84.7963 671.998 84.8675C674.031 84.8833 675.55 84.3218 677.014 82.851C693.959 65.8175 710.959 48.8315 727.983 31.8692C729.336 30.5249 729.968 29.1568 729.953 27.2194C729.874 14.9544 729.929 2.6893 729.905 -9.58365C729.897 -12.9287 729.85 -12.9919 726.543 -12.9919C696.189 -13.0077 665.828 -13.0077 635.474 -12.9919C632.096 -12.9919 632.096 -12.9366 632.033 -9.66273C632.017 -8.77705 632.033 -7.89137 632.033 -7.0057C632.033 19.4223 632.041 45.8582 632.025 72.2861C632.025 77.4578 632.476 77.0704 627.413 77.0783C618.434 77.0941 609.448 77.1732 600.469 77.0229C597.842 76.9755 596.015 77.7979 594.18 79.6404C577.694 96.2469 561.16 112.798 544.539 129.262C542.57 131.215 541.779 133.153 541.826 135.905C541.976 145.133 541.897 154.369 541.874 163.598C541.866 167.085 541.826 167.085 538.258 167.141C537.879 167.148 537.499 167.141 537.119 167.141C512.327 167.141 487.534 167.141 462.75 167.141C461.99 167.141 461.231 167.093 460.471 167.141C458.668 167.251 457.948 166.374 458.051 164.634C458.098 163.875 458.051 163.115 458.051 162.356C458.051 138.079 458.051 113.794 458.051 89.5173C458.051 88.6316 458.082 87.7459 458.067 86.8603C458.051 85.4131 458.794 84.8121 460.187 84.8517C461.073 84.8754 461.959 84.8359 462.845 84.8359C471.95 84.8359 481.055 84.7963 490.169 84.8596C492.17 84.8754 493.728 84.4167 495.224 82.9143C512.169 65.8729 529.169 48.8869 546.185 31.9325C547.443 30.6751 547.997 29.3782 547.989 27.5911C547.933 15.1995 547.973 2.80792 547.949 -9.59156C547.941 -12.9366 547.894 -12.9445 544.595 -13.0077C543.962 -13.0236 543.329 -13.0077 542.696 -13.0077C513.608 -13.0077 484.512 -13.0077 455.424 -13.0077C449.333 -13.0077 450.061 -13.3636 450.061 -7.77276C450.037 18.1491 450.069 44.0789 450.021 70.0008C450.021 72.2229 451.018 74.9827 449.396 76.5405C447.941 77.9402 445.291 77.0308 443.171 77.0466C434.825 77.102 426.471 77.1257 418.125 77.0308C415.95 77.0071 414.344 77.6002 412.785 79.1738C396.022 96.0333 379.204 112.845 362.346 129.61C360.788 131.16 360.115 132.742 360.139 134.94C360.234 144.042 360.178 153.152 360.178 162.254C360.178 163.139 360.139 164.025 360.171 164.911C360.234 166.563 359.356 167.172 357.829 167.117C357.323 167.101 356.816 167.125 356.31 167.125C332.024 167.125 307.738 167.133 283.452 167.117C279.868 167.117 279.821 167.069 279.821 163.606C279.805 138.57 279.805 113.525 279.821 88.4893C279.821 84.8596 279.86 84.8359 283.689 84.8359C293.047 84.82 302.406 84.7805 311.764 84.8675C313.932 84.8912 315.554 84.3218 317.12 82.7482C333.883 65.8887 350.701 49.0766 367.559 32.312C369.126 30.7542 369.735 29.1489 369.719 26.9663C369.64 15.2074 369.687 3.44846 369.679 -8.3184C369.679 -13.3557 369.972 -13.0077 364.901 -13.0077C335.853 -12.9919 306.757 -12.9998 277.669 -12.984C271.166 -12.984 271.862 -13.6562 271.862 -7.02942C271.846 19.3985 271.854 45.8344 271.854 72.2624C271.854 77.7821 272.1 77.0546 266.871 77.0783C257.892 77.1099 248.913 77.1415 239.926 77.0466C237.743 77.0229 236.145 77.6397 234.587 79.2134C217.824 96.0729 201.005 112.885 184.147 129.65C182.581 131.207 181.956 132.805 181.98 134.987C182.075 144.469 182.035 153.958 182.012 163.44C182.004 167.077 181.972 167.141 178.531 167.141C152.852 167.156 127.182 167.156 101.503 167.141C98.0068 167.141 97.9594 167.077 97.9594 163.503C97.9435 138.467 97.9435 113.423 97.9594 88.3865C97.9594 84.8991 98.0068 84.8675 101.575 84.8596C111.186 84.8359 120.798 84.8121 130.409 84.8833C132.316 84.8991 133.74 84.3772 135.108 83.0012C152.061 65.9757 169.054 48.9738 186.086 32.0353C187.565 30.5644 188.111 29.054 188.095 27.0138C188.024 15.2548 188.071 3.4959 188.055 -8.27095C188.047 -13.1105 188.633 -12.9919 183.333 -12.9919C153.992 -12.9919 124.642 -12.9919 95.3013 -12.984C89.5502 -12.984 90.191 -13.3715 90.1831 -7.90719C90.1672 19.1534 90.1831 46.2219 90.1672 73.2825C90.1672 77.0546 90.1356 77.0862 86.4729 77.0862C76.9878 77.102 67.5028 77.1257 58.0178 77.0625C56.0084 77.0466 54.4658 77.5132 52.9865 79.0078C36.0416 96.0492 19.0492 113.035 2.01725 129.982C0.545847 131.445 -0.00790843 132.955 2.36678e-06 134.995C0.0711995 146.754 0.0316455 158.521 0.0395563 170.28C0.0395563 175.42 -0.292697 174.946 4.77812 174.946C31.9754 174.953 59.1648 174.946 86.3621 174.953C90.1356 174.953 90.1672 174.985 90.1751 178.646C90.1831 203.556 90.1831 228.474 90.1751 253.383C90.1751 257.005 90.1356 257.029 86.3147 257.037C76.9562 257.053 67.5977 257.1 58.2393 256.997C56.0401 256.974 54.4579 257.654 52.9153 259.204C36.0574 276.15 19.152 293.049 2.1992 309.909C0.640777 311.458 -0.02373 313.04 2.36678e-06 315.238C0.0949319 325.353 0.0395563 335.475 0.0395563 345.589C0.0395563 347.993 0.0791103 350.397 0.0395563 352.801C0.0237348 354.2 0.569579 354.936 2.03308 354.896C3.04566 354.872 4.05824 354.904 5.07082 354.904C31.6353 354.904 58.1918 354.904 84.7562 354.904C85.7688 354.904 86.7814 354.967 87.794 354.896C89.6214 354.77 90.3254 355.632 90.191 357.379C90.1435 358.004 90.191 358.645 90.191 359.277C90.191 384.06 90.191 408.851 90.191 433.634C90.191 434.52 90.1593 435.406 90.1593 436.291C90.1593 437.383 89.5739 437.92 88.5376 437.976C87.525 438.031 86.5124 438.039 85.5078 438.039C76.529 438.047 67.5424 438.118 58.5636 437.992C56.0954 437.96 54.3234 438.711 52.5751 440.467C35.9071 457.247 19.1837 473.972 2.38906 490.618C0.593312 492.398 -0.00790843 494.216 0.015824 496.636C0.102843 507.889 0.0237347 519.15 0.0632887 530.403C0.0870211 536.246 -0.81481 535.922 5.52174 535.922C32.4659 535.93 59.4022 535.922 86.3463 535.93C90.1435 535.93 90.1831 535.97 90.1831 539.647C90.1989 564.683 90.1989 589.727 90.1831 614.763C90.1831 618.053 90.1277 618.093 86.7893 618.1C77.1777 618.124 67.5661 618.132 57.9545 618.085C56.1113 618.077 54.624 618.393 53.2159 619.816C36.089 637.032 18.9068 654.192 1.71664 671.344C0.56958 672.483 0.015824 673.677 0.0237347 675.345C0.0791103 687.863 0.0395563 700.381 0.0711995 712.907C0.0791103 715.873 0.150308 715.881 2.99028 715.976C3.62315 715.999 4.25601 715.984 4.88887 715.984C34.23 715.984 63.5791 715.991 92.9202 715.976C98.4894 715.976 97.9594 716.608 97.9594 710.867C97.9752 683.807 97.9594 656.738 97.9752 629.677C97.9752 625.921 98.0068 625.89 101.709 625.89C111.068 625.874 120.426 625.803 129.784 625.937C132.276 625.969 134.017 625.17 135.749 623.43C152.33 606.745 168.967 590.107 185.658 573.532C187.415 571.792 188.166 570.029 188.135 567.554C188.008 558.199 188.071 548.836 188.095 539.481C188.103 536.001 188.142 535.954 191.718 535.954C217.27 535.938 242.822 535.938 268.366 535.954C271.775 535.954 271.854 536.017 271.854 539.259C271.878 564.422 271.878 589.593 271.854 614.755C271.854 618.061 271.791 618.108 268.461 618.116C258.976 618.14 249.491 618.172 240.006 618.093C237.846 618.077 236.216 618.622 234.65 620.204C217.887 637.063 201.069 653.875 184.211 670.64C182.66 672.182 181.972 673.756 181.988 675.954C182.075 687.713 182.019 699.472 182.035 711.239C182.043 716.418 181.632 715.984 186.687 715.984C216.028 715.991 245.377 715.999 274.718 715.984C280.343 715.984 279.852 716.608 279.852 710.954C279.868 684.147 279.852 657.331 279.86 630.524C279.86 625.471 279.528 625.898 284.646 625.89C293.751 625.874 302.857 625.826 311.97 625.929C314.177 625.953 315.736 625.241 317.278 623.683C333.954 606.919 350.678 590.186 367.456 573.524C369.126 571.863 369.806 570.195 369.774 567.862C369.663 558.38 369.711 548.891 369.743 539.41C369.75 536.025 369.806 535.978 373.089 535.954C379.03 535.914 384.979 535.938 390.92 535.938C409.384 535.938 427.855 535.93 446.319 535.946C450.045 535.946 450.069 535.985 450.085 539.71C450.108 544.645 450.093 549.571 450.093 554.506C450.093 574.362 450.093 594.219 450.093 614.067C450.093 618.527 450.195 618.116 445.9 618.124C436.668 618.14 427.436 618.18 418.196 618.093C416.029 618.069 414.415 618.638 412.841 620.22C396.078 637.079 379.259 653.891 362.401 670.656C360.851 672.198 360.155 673.779 360.178 675.978C360.265 687.357 360.218 698.745 360.218 710.124C360.218 711.389 360.25 712.654 360.234 713.92C360.21 715.319 360.795 716.039 362.259 715.991C363.272 715.952 364.284 715.999 365.297 715.999C394.511 715.999 423.734 716.015 452.948 715.991C458.391 715.984 458.082 716.766 458.082 710.946C458.09 684.012 458.082 657.07 458.09 630.136C458.09 625.921 458.114 625.905 462.18 625.898C471.412 625.882 480.644 625.834 489.884 625.937C492.194 625.961 493.895 625.36 495.572 623.675C512.232 606.895 528.963 590.17 545.742 573.508C547.419 571.848 548.068 570.171 548.044 567.846C547.933 558.365 547.981 548.875 548.012 539.394C548.02 536.041 548.068 535.97 551.374 535.97C577.179 535.954 602.977 535.954 628.782 535.97C631.97 535.97 632.049 536.049 632.049 539.101C632.072 564.39 632.072 589.688 632.049 614.977C632.049 618.061 631.977 618.116 628.853 618.124C619.368 618.156 609.883 618.203 600.398 618.093C597.945 618.061 596.173 618.741 594.409 620.512C577.749 637.301 561.018 654.01 544.239 670.688C542.586 672.324 541.834 673.953 541.866 676.318C541.992 686.559 541.921 696.807 541.921 707.048C541.921 709.325 541.953 711.603 541.921 713.88C541.905 715.256 542.419 716.039 543.899 715.999C544.911 715.976 545.924 716.007 546.936 716.007C561.611 716.007 576.278 716.007 590.952 716.007C605.627 716.007 620.293 716.023 634.968 715.999C640.228 715.991 639.825 716.592 639.825 711.081C639.833 683.894 639.825 656.699 639.833 629.511C639.833 625.953 639.872 625.913 643.377 625.905C652.735 625.882 662.094 625.834 671.452 625.945C673.905 625.977 675.693 625.297 677.449 623.517C694.109 606.737 710.84 590.02 727.619 573.35C729.272 571.713 730.024 570.084 730 567.72C729.874 556.664 729.945 545.649 729.945 534.625ZM643.543 -5.01292C656.177 -5.02874 668.818 -5.02083 681.452 -5.02083C693.08 -5.02083 704.701 -5.02083 716.33 -5.02083C717.09 -5.02083 717.849 -5.02874 718.609 -5.02083C722.058 -4.96548 722.097 -4.96548 722.105 -1.3516C722.129 6.99116 722.066 15.326 722.145 23.6688C722.161 25.709 721.567 27.2273 720.096 28.6903C704.504 44.1896 688.959 59.7443 673.446 75.3227C672.196 76.5801 670.899 77.1415 669.111 77.1257C660.393 77.0546 651.675 77.1178 642.95 77.0862C639.896 77.0783 639.833 77.015 639.833 73.8598C639.817 48.7129 639.817 23.5739 639.833 -1.57302C639.833 -4.97339 639.888 -5.00502 643.543 -5.01292ZM283.032 -5.00502C295.674 -5.03665 308.323 -5.02083 320.965 -5.02083C332.973 -5.02083 344.99 -5.02083 356.998 -5.02083C357.884 -5.02083 358.77 -4.98129 359.656 -5.01292C361.215 -5.07619 362.006 -4.44356 361.943 -2.79873C361.887 -1.1539 361.943 0.490926 361.943 2.12785C361.943 9.33188 361.887 16.5438 361.974 23.7479C361.998 25.7723 361.46 27.2985 359.981 28.7614C344.468 44.1817 329.01 59.6573 313.56 75.1409C312.35 76.3508 311.163 77.1494 309.304 77.1336C300.452 77.0466 291.6 77.1178 282.755 77.0783C279.931 77.0704 279.86 76.9913 279.86 74.0338C279.836 48.7524 279.836 23.4632 279.86 -1.81816C279.86 -4.93385 279.931 -4.99711 283.032 -5.00502ZM90.1751 163.716C90.1751 167.069 90.1198 167.133 86.8051 167.141C74.2903 167.172 61.7754 167.148 49.2605 167.156C37.5051 167.156 25.7496 167.156 13.9942 167.156C13.2348 167.156 12.4753 167.164 11.7159 167.156C8.10065 167.101 8.08483 167.101 8.03737 163.637C8.00572 161.486 8.02946 159.343 8.02946 157.193C8.02946 150.874 8.08483 144.556 7.99781 138.237C7.97408 136.213 8.49619 134.679 9.98342 133.2C25.4965 117.788 40.9542 102.32 56.3881 86.8286C57.7251 85.4843 59.0778 84.7963 61.0318 84.82C69.6229 84.907 78.2219 84.8438 86.821 84.8675C90.1198 84.8754 90.1751 84.9308 90.1751 88.2758C90.191 113.415 90.191 138.562 90.1751 163.716ZM90.1831 342.52C90.1831 343.406 90.1435 344.292 90.1672 345.177C90.2068 346.64 89.4394 347.21 88.055 347.162C87.2956 347.139 86.5362 347.17 85.7767 347.17C61.364 347.17 36.9592 347.17 12.5465 347.17C12.2934 347.17 12.0402 347.17 11.7871 347.17C8.06901 347.131 8.03737 347.131 8.02946 343.374C8.00572 335.032 8.08483 326.681 7.98199 318.338C7.95035 316.124 8.69396 314.566 10.2366 313.032C25.5756 297.786 40.8672 282.5 56.1113 267.159C57.6697 265.593 59.2835 264.968 61.459 264.992C69.6783 265.087 77.8976 265.016 86.1169 265.032C90.1514 265.04 90.1593 265.063 90.1672 269.302C90.1751 281.567 90.1672 293.832 90.1672 306.097C90.1831 318.243 90.1831 330.382 90.1831 342.52ZM90.1831 666.892C90.1831 679.402 90.191 691.92 90.1751 704.43C90.1672 708.123 90.1356 708.163 86.3542 708.163C61.4511 708.179 36.5479 708.179 11.6447 708.163C8.09274 708.163 8.05319 708.107 8.04528 704.58C8.02155 696.111 8.08483 687.642 8.00572 679.18C7.9899 677.14 8.5753 675.63 10.0467 674.167C25.5519 658.755 41.0175 643.287 56.4435 627.795C57.7963 626.443 59.1727 625.818 61.103 625.834C69.6941 625.921 78.2931 625.85 86.8922 625.882C90.1277 625.89 90.1751 625.945 90.1751 629.361C90.1989 641.871 90.1831 654.382 90.1831 666.892ZM90.1831 499.19C90.1831 507.533 90.1989 515.876 90.1751 524.227C90.1672 527.904 90.1356 527.927 86.37 527.935C73.9817 527.951 61.5855 527.943 49.1972 527.943C37.1807 527.943 25.1721 527.943 13.1557 527.943C12.2696 527.943 11.3836 527.88 10.4976 527.943C8.74143 528.07 8.00573 527.326 8.02155 525.531C8.06901 516.303 8.06901 507.074 8.02155 497.846C8.01364 495.909 9.32683 494.928 10.466 493.781C24.1358 480.093 37.8057 466.404 51.5151 452.756C53.833 450.446 55.6999 447.212 58.7139 446.184C61.5618 445.219 64.9634 445.86 68.1199 445.844C73.5546 445.82 78.9972 445.805 84.4319 445.844C90.9346 445.892 90.1514 445.069 90.1672 451.395C90.2068 467.33 90.1831 483.264 90.1831 499.19ZM271.854 306.073C271.854 318.212 271.854 330.342 271.854 342.481C271.854 343.493 271.831 344.505 271.799 345.51C271.767 346.577 271.182 347.107 270.122 347.131C269.236 347.147 268.35 347.162 267.464 347.162C242.933 347.162 218.409 347.162 193.878 347.162C193.245 347.162 192.612 347.123 191.979 347.162C190.397 347.257 189.653 346.593 189.693 344.948C189.748 342.671 189.701 340.401 189.701 338.124C189.701 331.426 189.74 324.72 189.669 318.022C189.653 316.259 190.152 314.922 191.417 313.657C207.097 298.047 222.744 282.405 238.352 266.732C239.626 265.459 240.979 264.992 242.735 265C251.334 265.055 259.933 265 268.524 265.04C271.767 265.055 271.823 265.119 271.831 268.527C271.87 281.045 271.854 293.563 271.854 306.073ZM191.892 133.018C207.31 117.701 222.681 102.328 238.012 86.9156C239.452 85.4685 240.915 84.7805 242.988 84.8042C251.452 84.8991 259.925 84.8279 268.389 84.8517C271.767 84.8596 271.831 84.907 271.839 88.1967C271.862 113.344 271.854 138.49 271.839 163.637C271.839 167.093 271.783 167.133 268.152 167.141C255.637 167.164 243.13 167.148 230.615 167.148C218.607 167.148 206.606 167.148 194.598 167.148C193.712 167.148 192.826 167.117 191.947 167.133C190.373 167.172 189.653 166.46 189.701 164.847C189.756 162.831 189.701 160.806 189.701 158.782C189.701 151.958 189.78 145.133 189.653 138.309C189.622 136.118 190.342 134.568 191.892 133.018ZM97.9594 178.243C97.9594 175.017 98.0226 174.969 101.416 174.961C113.931 174.946 126.446 174.953 138.961 174.953C151.476 174.953 163.991 174.946 176.506 174.961C180.184 174.969 180.224 174.993 180.232 178.773C180.255 187.116 180.192 195.459 180.271 203.801C180.287 205.841 179.694 207.344 178.214 208.815C162.701 224.227 147.244 239.695 131.825 255.202C130.457 256.578 129.049 257.108 127.142 257.092C118.543 257.013 109.952 257.076 101.353 257.053C98.0068 257.045 97.9594 256.997 97.9514 253.708C97.9435 228.545 97.9435 203.39 97.9594 178.243ZM101.851 265.04C110.197 265.024 118.551 264.81 126.889 265.126C131.28 265.293 134.373 263.98 137.482 260.809C153.327 244.645 169.394 228.703 185.461 212.761C187.304 210.934 188.158 209.107 188.127 206.482C187.984 197.127 188.055 187.772 188.079 178.409C188.087 175.025 188.127 174.969 191.362 174.969C217.033 174.953 242.703 174.953 268.382 174.969C271.775 174.969 271.839 175.017 271.846 178.267C271.862 203.43 271.862 228.592 271.846 253.755C271.846 256.997 271.775 257.045 268.389 257.053C259.031 257.076 249.673 257.124 240.314 257.021C238.004 256.997 236.303 257.606 234.634 259.283C217.879 276.15 201.077 292.962 184.203 309.711C182.526 311.379 181.869 313.048 181.901 315.373C182.027 324.981 182.004 334.589 182.012 344.197C182.012 347.953 181.98 347.985 178.309 347.993C165.533 348.008 152.765 348.001 139.989 348.001C127.593 348.001 115.205 348.001 102.809 348.001C101.796 348.001 100.784 347.969 99.7709 347.977C98.4973 347.993 97.9435 347.344 97.9673 346.103C97.9831 345.344 97.9514 344.584 97.9514 343.825C97.9514 319.042 97.9514 294.259 97.9514 269.476C97.9514 269.349 97.9514 269.223 97.9514 269.096C97.9752 265.079 97.9752 265.047 101.851 265.04ZM97.9514 357.87C97.904 356.486 98.4815 355.727 99.9371 355.75C100.696 355.766 101.456 355.734 102.207 355.734C126.715 355.734 151.223 355.734 175.73 355.734C176.11 355.734 176.49 355.727 176.87 355.734C180.153 355.806 180.208 355.806 180.224 359.19C180.255 367.778 180.192 376.366 180.271 384.954C180.287 386.891 179.599 388.259 178.254 389.604C162.765 405.024 147.307 420.476 131.897 435.959C130.457 437.406 128.985 438.094 126.905 438.071C118.44 437.976 109.976 438.055 101.511 438.023C97.9989 438.007 97.9594 437.96 97.9514 434.409C97.9356 421.907 97.9435 409.397 97.9435 396.895C97.9435 384.772 97.9435 372.641 97.9435 360.519C97.9514 359.641 97.9831 358.755 97.9514 357.87ZM97.9514 36.1236C97.9514 23.993 97.9514 11.8624 97.9514 -0.268226C97.9514 -1.28043 97.9673 -2.29263 97.9831 -3.29692C98.0068 -4.34867 98.5289 -4.93385 99.6048 -4.96548C100.364 -4.9892 101.124 -5.01292 101.875 -5.01292C126.652 -5.01292 151.421 -5.01292 176.197 -5.01292C176.577 -5.01292 176.957 -5.02083 177.336 -5.00502C180.058 -4.89431 180.145 -4.86268 180.216 -2.24518C180.287 0.530465 180.24 3.31402 180.24 6.09758C180.24 11.9098 180.176 17.7221 180.271 23.5343C180.303 25.6932 179.717 27.3301 178.127 28.9038C162.701 44.2212 147.339 59.602 132 75.0064C130.576 76.4377 129.136 77.1811 127.039 77.1494C118.448 77.0387 109.849 77.1178 101.258 77.0941C97.9989 77.0862 97.9594 77.0387 97.9514 73.67C97.9356 61.1519 97.9514 48.6417 97.9514 36.1236ZM177.803 570.25C164.418 583.504 151.128 596.86 137.798 610.169C135.203 612.755 132.949 616.092 129.824 617.618C126.541 619.215 122.372 618.053 118.591 618.1C112.776 618.18 106.962 618.14 101.139 618.108C98.0306 618.093 97.9673 618.045 97.9594 614.937C97.9356 602.293 97.9514 589.656 97.9514 577.011C97.9514 564.999 97.9514 552.995 97.9514 540.983C97.9514 540.098 98.0147 539.212 97.9514 538.326C97.817 536.476 98.7742 535.843 100.475 535.93C101.108 535.962 101.741 535.93 102.374 535.922C126.905 535.922 151.436 535.922 175.96 535.922C176.593 535.922 177.226 535.97 177.858 535.922C179.71 535.788 180.271 536.76 180.255 538.461C180.216 543.387 180.247 548.322 180.247 553.248C180.247 556.918 180.137 560.587 180.287 564.248C180.382 566.715 179.575 568.495 177.803 570.25ZM184.132 490.618C182.557 492.184 181.956 493.781 181.98 495.956C182.075 505.438 182.035 514.927 182.012 524.408C182.004 527.888 181.964 527.927 178.404 527.927C165.502 527.943 152.599 527.935 139.705 527.935C127.435 527.935 115.165 527.935 102.904 527.935C101.891 527.935 100.878 527.912 99.8659 527.912C98.6555 527.912 97.9673 527.398 97.9831 526.109C97.991 525.223 97.9594 524.337 97.9594 523.452C97.9594 499.048 97.9594 474.637 97.9594 450.233C97.9594 450.106 97.9594 449.98 97.9594 449.853C97.9831 445.86 97.9831 445.844 101.836 445.836C110.814 445.82 119.801 445.686 128.772 445.907C131.968 445.986 134.143 444.958 136.358 442.721C152.457 426.446 168.634 410.251 184.931 394.174C187.304 391.834 188.206 389.477 188.142 386.219C187.968 376.864 188.063 367.501 188.095 358.146C188.103 354.975 188.158 354.912 191.212 354.904C217.017 354.888 242.814 354.888 268.619 354.904C271.775 354.904 271.854 354.967 271.862 358.051C271.886 383.594 271.886 409.136 271.862 434.686C271.862 437.96 271.791 438.007 268.389 438.023C258.904 438.055 249.419 438.087 239.934 438C237.751 437.976 236.145 438.624 234.595 440.182C217.8 457.05 200.997 473.862 184.132 490.618ZM267.654 527.935C255.392 527.943 243.122 527.935 230.861 527.935C218.852 527.935 206.836 527.935 194.827 527.935C193.941 527.935 193.055 527.88 192.169 527.935C190.429 528.046 189.677 527.366 189.685 525.531C189.74 516.429 189.756 507.328 189.669 498.226C189.653 496.47 190.531 495.426 191.623 494.343C196.465 489.527 201.282 484.695 206.108 479.864C216.479 469.496 226.897 459.169 237.181 448.723C239.183 446.69 241.161 445.686 244.095 445.765C251.674 445.971 259.268 445.812 266.855 445.844C272.115 445.868 271.839 445.172 271.846 450.652C271.854 462.917 271.846 475.174 271.846 487.439C271.846 499.578 271.854 511.708 271.839 523.847C271.846 527.919 271.823 527.935 267.654 527.935ZM271.854 667.414C271.854 679.418 271.854 691.422 271.854 703.426C271.854 704.438 271.839 705.45 271.807 706.455C271.775 707.506 271.214 708.076 270.161 708.123C269.276 708.163 268.389 708.171 267.511 708.171C243.122 708.171 218.726 708.171 194.337 708.171C194.21 708.171 194.083 708.171 193.957 708.171C189.74 708.139 189.725 708.139 189.717 704.082C189.701 697.258 190.033 690.418 189.614 683.617C189.289 678.406 190.951 674.752 194.724 671.099C209.153 657.118 223.266 642.812 237.395 628.523C239.341 626.554 241.287 625.747 244.04 625.803C252.125 625.969 260.218 625.842 268.302 625.866C271.799 625.874 271.846 625.921 271.854 629.496C271.87 642.14 271.854 654.777 271.854 667.414ZM367.535 212.413C369.228 210.729 369.782 209.005 369.758 206.719C369.663 197.364 369.711 188.009 369.727 178.654C369.735 174.993 369.766 174.961 373.556 174.961C397.834 174.953 422.112 174.953 446.39 174.961C450.053 174.961 450.085 174.993 450.085 178.757C450.093 203.54 450.093 228.316 450.093 253.099C450.093 253.352 450.1 253.605 450.093 253.858C450.013 256.974 450.013 257.037 446.936 257.045C437.704 257.076 428.472 257.163 419.24 256.997C416.345 256.942 414.312 257.835 412.287 259.884C395.904 276.403 379.449 292.851 362.931 309.228C360.985 311.158 360.115 313.08 360.163 315.855C360.329 325.21 360.234 334.565 360.218 343.92C360.21 347.961 360.194 347.985 356.389 347.985C332.111 347.993 307.833 347.993 283.554 347.985C282.795 347.985 282.036 347.969 281.284 347.937C280.366 347.898 279.947 347.336 279.915 346.474C279.876 345.462 279.868 344.45 279.868 343.438C279.868 331.173 279.868 318.908 279.868 306.651C279.868 294.512 279.868 282.373 279.868 270.235C279.868 269.476 279.844 268.717 279.876 267.958C279.979 265.142 279.987 265.119 282.969 265.047C284.868 265 286.766 265.04 288.657 265.04C296.243 265.04 303.83 264.968 311.416 265.079C313.718 265.111 315.443 264.526 317.12 262.841C333.859 245.966 350.662 229.162 367.535 212.413ZM361.943 362.488C361.943 369.945 361.879 377.402 361.982 384.859C362.006 386.915 361.365 388.394 359.909 389.841C344.491 405.174 329.121 420.547 313.774 435.951C312.461 437.272 311.147 438.094 309.17 438.071C300.444 437.984 291.726 438.055 283.001 438.023C279.923 438.007 279.86 437.944 279.86 434.789C279.844 409.508 279.844 384.226 279.86 358.945C279.86 355.782 279.931 355.742 283.404 355.742C296.046 355.727 308.687 355.734 321.329 355.734C333.211 355.734 345.1 355.734 356.982 355.734C357.868 355.734 358.754 355.782 359.64 355.734C361.207 355.655 361.998 356.288 361.943 357.933C361.895 359.451 361.943 360.969 361.943 362.488ZM279.86 177.658C279.971 175.056 279.979 175.048 282.748 174.953C283.254 174.938 283.76 174.946 284.266 174.946C308.545 174.946 332.823 174.946 357.101 174.946C357.607 174.946 358.114 174.938 358.62 174.953C361.895 175.04 361.935 175.04 361.943 178.393C361.966 186.989 361.911 195.585 361.982 204.181C361.998 205.952 361.484 207.273 360.218 208.53C344.634 224.053 329.065 239.608 313.552 255.202C312.176 256.586 310.76 257.084 308.853 257.068C300.381 256.997 291.908 257.053 283.436 257.029C279.908 257.021 279.868 256.989 279.86 253.502C279.844 240.984 279.852 228.466 279.852 215.956C279.852 204.07 279.852 192.185 279.852 180.307C279.852 179.429 279.821 178.544 279.86 177.658ZM359.332 570.448C345.425 584.223 331.605 598.102 317.761 611.94C316.329 613.372 314.818 614.724 313.497 616.25C312.215 617.713 310.744 618.172 308.822 618.148C300.357 618.061 291.892 618.124 283.428 618.108C279.9 618.1 279.86 618.069 279.852 614.589C279.836 602.087 279.844 589.577 279.844 577.075C279.844 565.078 279.844 553.074 279.844 541.078C279.844 540.192 279.9 539.307 279.844 538.429C279.726 536.697 280.398 535.804 282.225 535.93C282.977 535.985 283.744 535.922 284.496 535.922C308.75 535.922 333.005 535.922 357.259 535.922C358.019 535.922 358.778 535.978 359.53 535.93C361.326 535.819 361.966 536.666 361.95 538.421C361.895 543.474 361.935 548.527 361.935 553.58C361.935 557.115 361.784 560.666 361.982 564.185C362.148 566.818 361.167 568.629 359.332 570.448ZM362.496 490.508C360.827 492.168 360.147 493.837 360.171 496.17C360.281 505.398 360.226 514.634 360.21 523.863C360.202 527.904 360.186 527.935 356.373 527.935C332.087 527.943 307.809 527.943 283.523 527.935C279.876 527.935 279.852 527.896 279.852 524.124C279.844 499.341 279.844 474.557 279.844 449.774C279.844 449.268 279.892 448.762 279.844 448.256C279.686 446.461 280.493 445.805 282.273 445.828C287.328 445.899 292.391 445.844 297.446 445.844C302.256 445.844 307.057 445.773 311.859 445.876C313.892 445.923 315.419 445.37 316.891 443.883C333.843 426.857 350.844 409.871 367.876 392.933C369.26 391.557 369.743 390.118 369.727 388.22C369.663 378.359 369.687 368.498 369.703 358.629C369.711 354.936 369.743 354.904 373.5 354.904C397.786 354.896 422.065 354.896 446.351 354.904C450.029 354.904 450.053 354.936 450.061 358.7C450.077 371.344 450.069 383.989 450.069 396.634C450.069 408.899 450.069 421.164 450.069 433.429C450.069 434.314 450.045 435.2 450.053 436.086C450.069 437.304 449.547 437.992 448.273 438.007C447.387 438.015 446.501 438.039 445.615 438.039C436.51 438.039 427.404 438.11 418.299 437.992C415.957 437.96 414.296 438.688 412.643 440.348C395.999 457.121 379.275 473.846 362.496 490.508ZM450.085 486.751C450.085 499.135 450.093 511.527 450.085 523.91C450.085 527.904 450.061 527.935 446.24 527.935C421.59 527.943 396.94 527.943 372.29 527.943C371.784 527.943 371.277 527.959 370.771 527.927C368.113 527.785 368.026 527.769 368.01 525.073C367.963 518.628 367.955 512.183 368.01 505.738C368.034 502.591 367.077 499.095 368.406 496.375C369.727 493.679 372.567 491.702 374.798 489.472C388.46 475.783 402.177 462.142 415.783 448.406C417.611 446.564 419.454 445.741 422.072 445.789C430.41 445.939 438.756 445.82 447.102 445.86C449.998 445.876 450.069 445.939 450.077 448.833C450.1 461.47 450.085 474.107 450.085 486.751ZM450.085 306.263C450.085 318.402 450.085 330.532 450.085 342.671C450.085 343.683 450.077 344.695 450.021 345.699C449.974 346.577 449.483 347.083 448.589 347.123C447.703 347.154 446.817 347.17 445.939 347.17C421.408 347.17 396.884 347.17 372.353 347.17C371.72 347.17 371.087 347.123 370.455 347.17C368.698 347.305 367.971 346.569 367.978 344.766C368.026 335.538 368.042 326.309 367.971 317.081C367.955 315.128 369.244 314.155 370.383 313.008C383.879 299.502 397.375 286.011 410.879 272.512C412.754 270.638 414.684 268.812 416.495 266.866C417.698 265.569 419.035 265 420.823 265.008C429.548 265.071 438.274 265.008 446.991 265.055C450.005 265.071 450.069 265.142 450.077 268.345C450.1 280.982 450.085 293.618 450.085 306.263ZM450.085 126.439C450.085 138.443 450.085 150.447 450.085 162.459C450.085 163.345 450.045 164.23 450.077 165.116C450.124 166.571 449.412 167.18 448.004 167.148C447.118 167.125 446.232 167.164 445.354 167.164C421.084 167.164 396.813 167.164 372.551 167.164C367.535 167.164 368.002 167.243 367.994 162.657C367.986 154.441 368.042 146.224 367.955 138.016C367.939 136.102 368.477 134.703 369.845 133.335C385.438 117.827 400.982 102.273 416.511 86.7021C417.745 85.4606 419.019 84.8121 420.823 84.8279C429.54 84.8991 438.266 84.8359 446.984 84.8754C450.006 84.8912 450.061 84.9545 450.069 88.1571C450.1 100.905 450.085 113.676 450.085 126.439ZM450.077 705.26C449.982 708.036 449.974 708.044 447.355 708.163C446.723 708.194 446.09 708.171 445.457 708.171C421.186 708.171 396.916 708.171 372.654 708.171C372.021 708.171 371.388 708.194 370.755 708.163C368.097 708.036 368.018 708.036 368.002 705.292C367.955 698.594 368.437 691.857 367.852 685.206C367.274 678.682 369.569 674.254 374.244 669.778C388.396 656.24 402.09 642.219 415.87 628.302C417.611 626.546 419.367 625.771 421.843 625.811C430.181 625.937 438.527 625.842 446.873 625.874C449.998 625.89 450.061 625.945 450.069 629.045C450.093 641.682 450.077 654.318 450.085 666.955C450.085 678.959 450.085 690.963 450.085 702.975C450.085 703.742 450.108 704.501 450.077 705.26ZM551.873 133.184C567.386 117.772 582.844 102.304 598.278 86.8128C599.614 85.4685 600.967 84.7884 602.921 84.8042C611.512 84.8912 620.111 84.82 628.71 84.8517C632.001 84.8596 632.057 84.9149 632.057 88.2679C632.072 113.423 632.072 138.57 632.057 163.724C632.057 167.069 632.001 167.133 628.679 167.141C616.164 167.172 603.649 167.148 591.134 167.156C579.252 167.156 567.37 167.156 555.488 167.156C554.729 167.156 553.969 167.172 553.21 167.148C550.014 167.069 549.982 167.061 549.927 164.001C549.879 161.344 549.911 158.695 549.911 156.038C549.911 150.099 549.966 144.16 549.879 138.222C549.848 136.197 550.386 134.663 551.873 133.184ZM549.871 318.259C549.824 316.053 550.568 314.495 552.118 312.953C567.441 297.723 582.709 282.445 597.945 267.143C599.369 265.712 600.817 264.968 602.913 264.992C611.504 265.095 620.095 265.016 628.687 265.047C631.993 265.063 632.049 265.119 632.049 268.464C632.064 293.603 632.064 318.734 632.049 343.873C632.049 347.115 631.985 347.162 628.6 347.17C616.093 347.194 603.586 347.178 591.079 347.178C579.205 347.178 567.331 347.178 555.456 347.178C554.57 347.178 553.684 347.202 552.806 347.17C550.117 347.075 549.998 347.012 549.935 344.41C549.863 341.508 549.911 338.598 549.911 335.696C549.911 329.876 549.99 324.064 549.871 318.259ZM458.098 177.002C458.075 175.586 458.723 174.914 460.163 174.969C461.049 175.001 461.935 174.961 462.821 174.961C487.099 174.961 511.385 174.961 535.664 174.961C536.423 174.961 537.182 175.001 537.942 174.961C539.5 174.874 540.252 175.483 540.244 177.144C540.212 186.499 540.204 195.854 540.252 205.217C540.26 206.838 539.247 207.724 538.274 208.704C533.18 213.805 528.085 218.897 522.99 223.998C512.706 234.278 502.391 244.534 492.162 254.87C490.627 256.42 489.061 257.132 486.854 257.108C478.382 257.005 469.909 257.084 461.437 257.053C458.162 257.045 458.106 256.989 458.098 253.636C458.075 241.118 458.09 228.6 458.09 216.082C458.09 204.07 458.09 192.058 458.09 180.046C458.082 179.018 458.114 178.006 458.098 177.002ZM458.082 28.2C458.082 18.4654 458.075 8.73089 458.09 -1.00365C458.098 -4.98129 458.122 -5.01292 462.006 -5.01292C474.395 -5.02874 486.791 -5.02083 499.179 -5.02083C511.188 -5.02083 523.204 -5.02083 535.213 -5.02083C536.225 -5.02083 537.238 -4.9892 538.25 -5.00502C539.714 -5.02083 540.276 -4.24586 540.22 -2.8699C540.196 -2.23728 540.228 -1.60465 540.228 -0.972023C540.228 7.24421 540.189 15.4605 540.26 23.6767C540.276 25.6932 539.785 27.2273 538.298 28.7061C522.777 44.1184 507.319 59.5941 491.885 75.0855C490.564 76.414 489.243 77.1494 487.273 77.1257C478.674 77.0229 470.075 77.102 461.476 77.0704C458.161 77.0625 458.098 77.015 458.09 73.7016C458.067 58.5423 458.082 43.3672 458.082 28.2ZM458.09 268.669C458.122 265.103 458.146 265.055 461.642 265.047C470.748 265.016 479.845 264.953 488.95 265.087C491.798 265.126 493.879 264.367 495.943 262.28C512.39 245.657 528.947 229.146 545.536 212.666C547.277 210.942 548.091 209.21 548.052 206.719C547.917 197.372 547.989 188.017 548.004 178.662C548.012 175.017 548.036 174.969 551.43 174.969C577.219 174.953 603.008 174.953 628.797 174.969C631.977 174.969 632.049 175.033 632.057 178.061C632.08 203.343 632.08 228.616 632.057 253.897C632.057 256.974 631.985 257.037 628.845 257.045C619.368 257.076 609.883 257.132 600.405 257.005C597.929 256.974 596.173 257.725 594.433 259.48C577.773 276.253 561.065 292.97 544.286 309.616C542.506 311.387 541.866 313.182 541.889 315.618C541.992 325.226 541.945 334.826 541.929 344.434C541.921 347.945 541.889 347.977 538.377 347.985C525.609 348.001 512.841 347.993 500.073 347.993C487.938 347.993 475.803 347.993 463.667 347.993C463.161 347.993 462.655 347.993 462.149 347.993C458.122 347.969 458.098 347.969 458.098 343.754C458.09 322.522 458.098 301.289 458.098 280.056C458.082 276.253 458.059 272.457 458.09 268.669ZM458.082 396.974C458.082 384.843 458.082 372.713 458.082 360.574C458.082 359.688 458.122 358.803 458.098 357.917C458.043 356.28 458.897 355.655 460.44 355.734C461.073 355.766 461.706 355.727 462.338 355.727C486.862 355.727 511.377 355.727 535.901 355.727C536.534 355.727 537.167 355.774 537.799 355.727C539.572 355.6 540.268 356.375 540.26 358.17C540.212 367.398 540.196 376.619 540.276 385.847C540.291 387.793 539.081 388.797 537.934 389.944C527.658 400.224 517.382 410.496 507.098 420.776C502.003 425.869 496.877 430.93 491.838 436.078C490.501 437.438 489.101 438.079 487.17 438.063C478.579 437.992 469.98 438.055 461.389 438.015C458.162 438 458.114 437.936 458.106 434.496C458.067 421.994 458.082 409.484 458.082 396.974ZM537.863 570.092C524.826 583.14 511.781 596.18 498.744 609.22C496.331 611.632 493.879 614.004 491.529 616.471C490.406 617.65 489.18 618.156 487.534 618.14C478.817 618.077 470.099 618.132 461.381 618.1C458.154 618.093 458.106 618.037 458.098 614.637C458.075 602.008 458.09 589.371 458.09 576.742C458.09 564.873 458.09 552.995 458.09 541.126C458.09 540.24 458.138 539.354 458.09 538.476C457.995 536.784 458.612 535.819 460.456 535.938C461.207 535.985 461.975 535.93 462.726 535.93C486.981 535.93 511.235 535.93 535.497 535.93C536.257 535.93 537.016 535.978 537.768 535.938C539.5 535.851 540.26 536.555 540.244 538.374C540.189 547.594 540.181 556.815 540.252 566.035C540.276 567.988 539.002 568.961 537.863 570.092ZM544.801 489.994C542.783 491.994 541.786 493.987 541.842 496.921C542.032 506.141 541.929 515.37 541.897 524.598C541.889 527.872 541.842 527.927 538.511 527.927C512.849 527.943 487.186 527.943 461.524 527.927C458.154 527.927 458.09 527.872 458.09 524.606C458.075 499.451 458.075 474.297 458.09 449.15C458.09 445.899 458.162 445.86 461.547 445.852C471.032 445.828 480.51 445.789 489.995 445.884C492.178 445.907 493.768 445.275 495.326 443.709C512.081 426.857 528.884 410.053 545.75 393.305C547.427 391.644 548.068 389.96 548.044 387.635C547.941 377.9 547.989 368.173 548.004 358.439C548.012 354.944 548.052 354.912 551.596 354.904C564.491 354.888 577.385 354.896 590.28 354.896C602.415 354.896 614.55 354.896 626.685 354.896C627.318 354.896 627.951 354.888 628.584 354.896C631.985 354.952 631.985 354.952 632.057 358.178C632.065 358.558 632.057 358.937 632.057 359.317C632.057 384.092 632.057 408.867 632.057 433.642C632.057 434.022 632.065 434.401 632.057 434.781C631.977 437.928 631.977 438 628.876 438.015C620.404 438.055 611.939 437.968 603.467 438.047C595.2 438.126 598.016 436.916 592.052 442.847C576.27 458.544 560.598 474.328 544.801 489.994ZM632.057 703.473C632.057 704.359 632.017 705.245 632.049 706.13C632.096 707.601 631.297 708.155 629.944 708.155C629.185 708.155 628.426 708.179 627.666 708.179C603.143 708.179 578.611 708.179 554.088 708.179C553.328 708.179 552.569 708.155 551.81 708.147C550.583 708.131 549.95 707.522 549.935 706.289C549.919 704.644 549.911 702.999 549.911 701.362C549.911 694.031 549.974 686.701 549.871 679.37C549.84 677.204 550.417 675.575 551.991 674.009C567.418 658.683 582.788 643.311 598.127 627.89C599.591 626.419 601.086 625.826 603.143 625.842C611.615 625.929 620.08 625.866 628.552 625.89C632.009 625.898 632.041 625.945 632.049 629.543C632.064 642.18 632.057 654.824 632.057 667.461C632.057 679.457 632.057 691.469 632.057 703.473ZM629.691 527.935C628.94 527.88 628.172 527.935 627.413 527.935C603.127 527.935 578.841 527.935 554.555 527.935C553.922 527.935 553.289 527.951 552.656 527.927C550.03 527.809 549.95 527.809 549.927 525.049C549.879 518.343 550.306 511.614 549.792 504.947C549.31 498.637 551.343 494.193 555.963 489.78C570.131 476.242 583.825 462.198 597.629 448.28C599.361 446.532 601.102 445.741 603.594 445.781C611.813 445.923 620.032 445.82 628.259 445.836C632.017 445.844 632.049 445.868 632.049 449.553C632.064 461.944 632.057 474.336 632.057 486.736C632.057 498.748 632.057 510.767 632.057 522.779C632.057 523.665 632.001 524.551 632.065 525.436C632.183 527.168 631.527 528.078 629.691 527.935ZM639.833 359.396C639.841 355.798 639.872 355.742 643.314 355.742C668.454 355.727 693.595 355.727 718.735 355.742C722.034 355.742 722.089 355.806 722.105 359.174C722.137 367.762 722.073 376.35 722.153 384.938C722.168 386.875 721.496 388.251 720.143 389.588C704.654 405.008 689.196 420.46 673.778 435.944C672.338 437.391 670.875 438.094 668.794 438.071C660.33 437.976 651.865 438.047 643.401 438.023C639.872 438.007 639.833 437.968 639.825 434.417C639.809 421.915 639.817 409.405 639.817 396.903C639.825 384.408 639.817 371.906 639.833 359.396ZM642.206 174.953C642.958 175.017 643.725 174.953 644.484 174.953C668.755 174.953 693.025 174.953 717.295 174.953C717.928 174.953 718.561 174.938 719.194 174.961C721.955 175.056 722.073 175.064 722.089 177.69C722.145 186.665 722.058 195.64 722.153 204.608C722.176 206.672 721.021 207.834 719.771 209.092C710.563 218.288 701.355 227.501 692.147 236.706C686.159 242.692 680.123 248.631 674.205 254.696C672.591 256.349 670.978 257.147 668.597 257.108C660.132 256.966 651.66 257.068 643.187 257.045C639.888 257.037 639.841 256.981 639.841 253.652C639.817 241.016 639.833 228.371 639.833 215.734C639.833 203.857 639.833 191.971 639.833 180.094C639.833 179.208 639.888 178.322 639.825 177.437C639.698 175.697 640.371 174.803 642.206 174.953ZM720.27 569.523C704.599 585.141 688.959 600.774 673.335 616.44C672.188 617.594 670.994 618.148 669.34 618.14C660.488 618.077 651.644 618.132 642.792 618.1C639.912 618.093 639.841 618.021 639.841 615.095C639.809 602.332 639.825 589.561 639.825 576.798C639.825 564.92 639.825 553.035 639.825 541.157C639.825 540.272 639.896 539.378 639.817 538.508C639.627 536.444 640.679 535.796 642.546 535.93C643.171 535.978 643.812 535.93 644.445 535.93C668.842 535.93 693.239 535.93 717.643 535.93C718.15 535.93 718.656 535.914 719.162 535.938C721.955 536.049 722.089 536.104 722.105 539.038C722.145 547.76 722.089 556.483 722.145 565.205C722.153 566.984 721.512 568.281 720.27 569.523Z" fill="#002A3A"/>
</svg>
